<svg width="1440" height="1539" viewBox="0 0 1440 1539" fill="none" xmlns="http://www.w3.org/2000/svg">
<path d="M1401.45 1538.98V0" stroke="#727272" stroke-opacity="0.21" stroke-dasharray="6 6"/>
<path d="M1307.57 1539V0.0235596" stroke="#727272" stroke-opacity="0.21" stroke-dasharray="6 6"/>
<path d="M1213.73 1539V0.0235596" stroke="#727272" stroke-opacity="0.21" stroke-dasharray="6 6"/>
<path d="M1119.89 1539V0.0235596" stroke="#727272" stroke-opacity="0.21" stroke-dasharray="6 6"/>
<path d="M1026.05 1539V0.0235596" stroke="#727272" stroke-opacity="0.21" stroke-dasharray="6 6"/>
<path d="M932.212 1539V0.0235596" stroke="#727272" stroke-opacity="0.21" stroke-dasharray="6 6"/>
<path d="M838.368 1539V0.0235596" stroke="#727272" stroke-opacity="0.21" stroke-dasharray="6 6"/>
<path d="M744.53 1539V0.0235596" stroke="#727272" stroke-opacity="0.21" stroke-dasharray="6 6"/>
<path d="M650.682 1539L650.684 0.0235596" stroke="#727272" stroke-opacity="0.21" stroke-dasharray="6 6"/>
<path d="M556.851 1539V0.0235596" stroke="#727272" stroke-opacity="0.21" stroke-dasharray="6 6"/>
<path d="M463.021 1539V0.0235596" stroke="#727272" stroke-opacity="0.21" stroke-dasharray="6 6"/>
<path d="M369.162 1539L369.164 0.0235596" stroke="#727272" stroke-opacity="0.21" stroke-dasharray="6 6"/>
<path d="M275.319 1539V0.0235596" stroke="#727272" stroke-opacity="0.21" stroke-dasharray="6 6"/>
<path d="M181.481 1539V0.0235596" stroke="#727272" stroke-opacity="0.21" stroke-dasharray="6 6"/>
<path d="M87.6445 1539L87.6447 0.0235596" stroke="#727272" stroke-opacity="0.21" stroke-dasharray="6 6"/>
<path d="M-68.998 1472.31L2875.7 1472.31" stroke="#727272" stroke-opacity="0.21" stroke-dasharray="6 6"/>
<path d="M-68.998 1378.47H2875.7" stroke="#727272" stroke-opacity="0.21" stroke-dasharray="6 6"/>
<path d="M-68.998 1284.63H2875.7" stroke="#727272" stroke-opacity="0.21" stroke-dasharray="6 6"/>
<path d="M-68.998 1190.79L2875.7 1190.79" stroke="#727272" stroke-opacity="0.21" stroke-dasharray="6 6"/>
<path d="M-68.998 1096.95H2875.7" stroke="#727272" stroke-opacity="0.21" stroke-dasharray="6 6"/>
<path d="M-68.998 1003.11H2875.7" stroke="#727272" stroke-opacity="0.21" stroke-dasharray="6 6"/>
<path d="M-68.998 909.263L2875.7 909.265" stroke="#727272" stroke-opacity="0.21" stroke-dasharray="6 6"/>
<path d="M-68.998 815.424H2875.7" stroke="#727272" stroke-opacity="0.21" stroke-dasharray="6 6"/>
<path d="M-68.998 721.586H2875.7" stroke="#727272" stroke-opacity="0.21" stroke-dasharray="6 6"/>
<path d="M-68.998 627.744L2875.7 627.746" stroke="#727272" stroke-opacity="0.21" stroke-dasharray="6 6"/>
<path d="M-68.998 533.905H2875.7" stroke="#727272" stroke-opacity="0.21" stroke-dasharray="6 6"/>
<path d="M-68.998 440.067H2875.7" stroke="#727272" stroke-opacity="0.21" stroke-dasharray="6 6"/>
<path d="M-68.998 346.225L2875.7 346.227" stroke="#727272" stroke-opacity="0.21" stroke-dasharray="6 6"/>
<path d="M-68.998 252.386H2875.7" stroke="#727272" stroke-opacity="0.21" stroke-dasharray="6 6"/>
<path d="M-68.998 158.544L2875.7 158.545" stroke="#727272" stroke-opacity="0.21" stroke-dasharray="6 6"/>
<path d="M-69 64.7074L2875.7 64.7078" stroke="#727272" stroke-opacity="0.21" stroke-dasharray="6 6"/>
</svg>
